<svg xmlns="http://www.w3.org/2000/svg" viewBox="0 0 70 70"><defs><style>.a{fill:#dfcde4;}.b{fill:#fff;stroke:#9d90c4;stroke-miterlimit:10;}.c{fill:#b095c5;}</style></defs><title>资源 8</title><circle class="a" cx="35" cy="35" r="35"/><path class="b" d="M46.80913,43.37121a5.67954,5.67954,0,0,1,.16015.83982,8.02524,8.02524,0,0,1,.0625,1.00388,5.8417,5.8417,0,0,1-.07226.95115,1.75776,1.75776,0,0,1-.22656.66991,1.21168,1.21168,0,0,1-.58592.29882,10.54656,10.54656,0,0,1-1.20114.27148c-.48046.084-1.00974.16015-1.58785.23632s-1.16013.13476-1.74605.18359-1.15232.09179-1.69722.125S38.88939,48,38.4773,48s-.88474-.01758-1.42379-.04883-1.09372-.07617-1.66988-.125-1.14841-.10351-1.7109-.16015-1.07615-.125-1.54879-.19531-.86521-.14843-1.18747-.22265a1.86323,1.86323,0,0,1-.60741-.21093,1.996,1.996,0,0,1-.32421-1.039,8.20294,8.20294,0,0,1,.07617-2.22846,1.75777,1.75777,0,0,1,.6328-1.18747,4.29675,4.29675,0,0,1,1.20114-.64647c.46093-.16406.93748-.30859,1.42379-.42968a4.328,4.328,0,0,0,1.3027-.55858,4.00376,4.00376,0,0,0,.67967-.54491,1.871,1.871,0,0,0,.34765-.49218,1.289,1.289,0,0,0,.11133-.52147c0-.17968-.00976-.39062-.02344-.61913a1.22067,1.22067,0,0,0-.34765-.78123,6.49048,6.49048,0,0,0-.64647-.55467,1.31637,1.31637,0,0,1-.30859-.41991,5.32407,5.32407,0,0,1-.23632-.54491q-.09961-.29687-.19531-.666a1.31246,1.31246,0,0,1-.29491-.14843,1.36714,1.36714,0,0,1-.25976-.29882,2.12886,2.12886,0,0,1-.25976-.54491,1.53707,1.53707,0,0,1-.10156-.65623,1.40622,1.40622,0,0,1,.125-.5078,1.56247,1.56247,0,0,1,.27148-.44335,10.91578,10.91578,0,0,1,.07812-1.60934,11.611,11.611,0,0,1,.30859-1.44723,4.53114,4.53114,0,0,1,.65623-1.40036,3.85733,3.85733,0,0,1,.89256-.96482,4.41005,4.41005,0,0,1,2.05464-.875,7.10337,7.10337,0,0,1,.99021-.07422,4.787,4.787,0,0,1,2.25776.52147,4.18283,4.18283,0,0,1,2.26557,2.61517,12.03676,12.03676,0,0,1,.39062,1.54489,9.783,9.783,0,0,1,.09961,1.68355.97652.97652,0,0,1,.21484.27148,2.252,2.252,0,0,1,.13476.39062,1.50387,1.50387,0,0,1,.01367.58592,2.01556,2.01556,0,0,1-.19531.71873,1.81244,1.81244,0,0,1-.29882.41991.78122.78122,0,0,1-.39062.22656q-.09961.36913-.19531.666a3.86721,3.86721,0,0,1-.25.54491,1.17186,1.17186,0,0,1-.3203.39062c-.13281.11523-.2539.21484-.36132.29491a2.24217,2.24217,0,0,0-.28515.25585,1.27342,1.27342,0,0,0-.209.30859,1.73826,1.73826,0,0,0-.13867.42382,3.43164,3.43164,0,0,0-.043.65623,1.623,1.623,0,0,0,.16015.65233,1.95307,1.95307,0,0,0,.48241.62108,2.8886,2.8886,0,0,0,.93162.51757,7.7889,7.7889,0,0,0,1.14841.39062A11.55827,11.55827,0,0,1,45.11,41.924a4.2714,4.2714,0,0,1,1.041.5703,1.916,1.916,0,0,1,.65623.89256"/><path class="c" d="M33.60437,38.82053a1.666,1.666,0,0,1-.125.41991.90427.90427,0,0,1-.34765.32226,6.55647,6.55647,0,0,1-1.38473.64256c-.49608.166-.97654.34765-1.4277.54491a4.11124,4.11124,0,0,0-1.18747.78123,2.26752,2.26752,0,0,0-.6328,1.36715,4.95487,4.95487,0,0,0-.0625.53514c0,.17382-.02148.332-.03516.48241a.94716.94716,0,0,1-.05273.08593c-.01367.02344-.03125.05273-.04883.08594-.64647-.05078-1.29489-.10742-1.95308-.17382s-1.26755-.14257-1.81832-.22265-1.02146-.166-1.40036-.25a1.91011,1.91011,0,0,1-.71873-.24609,1.7627,1.7627,0,0,1-.334-1.039,8.46464,8.46464,0,0,1,.08594-2.24995,1.81636,1.81636,0,0,1,.62889-1.17185,3.90616,3.90616,0,0,1,1.19528-.64842c.46093-.15625.93357-.30273,1.42379-.43358a4.94523,4.94523,0,0,0,1.31052-.54491,4.23626,4.23626,0,0,0,.68358-.541,1.56246,1.56246,0,0,0,.334-.50975,1.48044,1.48044,0,0,0,.09765-.53124,5.1315,5.1315,0,0,0-.02344-.58592,1.22653,1.22653,0,0,0-.334-.78123,8.08159,8.08159,0,0,0-.63084-.58592.96091.96091,0,0,1-.334-.39062,5.30847,5.30847,0,0,1-.23632-.54491q-.09961-.29687-.19531-.666a1.332,1.332,0,0,1-.29882-.14843,1.4609,1.4609,0,0,1-.25976-.29882,2.44915,2.44915,0,0,1-.26757-.55467,1.582,1.582,0,0,1-.09765-.65233,1.56246,1.56246,0,0,1,.125-.53514,1.19919,1.19919,0,0,1,.26562-.4453,10.48415,10.48415,0,0,1,.07422-1.60738,10.68141,10.68141,0,0,1,.32226-1.43747,4.50575,4.50575,0,0,1,.66991-1.38473,3.86709,3.86709,0,0,1,.89256-.96482,4.71863,4.71863,0,0,1,1.00388-.58592,4.41591,4.41591,0,0,1,1.03123-.2832,7.31232,7.31232,0,0,1,1.01365-.07226,4.71083,4.71083,0,0,1,2.23042.52147,4.77527,4.77527,0,0,1,1.4902,1.11521,2.13666,2.13666,0,0,1,.40624.78123c.05859.24023.13476.51757.23632.83006a4.90612,4.90612,0,0,0-1.00388.80467,9.29669,9.29669,0,0,0-.92967,1.07615,5.11315,5.11315,0,0,0-.74217,1.53512A14.4703,14.4703,0,0,0,31.872,31.227a12.613,12.613,0,0,0-.12109,1.73238,1.54684,1.54684,0,0,0-.29882.49218,1.92769,1.92769,0,0,0-.02344,1.31247,2.44526,2.44526,0,0,0,.27148.64256,2.38272,2.38272,0,0,0,.27343.34765.75.75,0,0,0,.29882.19531c.0664.26367.13281.51366.19531.74412.0664.19531.14258.39062.23242.60741a1.17185,1.17185,0,0,0,.33788.457c.11523.09765.19531.18164.27148.24609a1.73233,1.73233,0,0,1,.16406.18359.46679.46679,0,0,1,.07226.23632,2.91783,2.91783,0,0,0,.0625.39062Z"/></svg>