<svg xmlns="http://www.w3.org/2000/svg" viewBox="0 0 70 70"><defs><style>.a{fill:#f9c898;}.b{fill:#fff;}.c{fill:#f18c1a;}.d{fill:#ea5e5c;}</style></defs><title>资源 7</title><circle class="a" cx="35" cy="35" r="35"/><circle class="b" cx="35.009" cy="34.87226" r="13.94274"/><path class="c" d="M45.64407,24.35593A14.87253,14.87253,0,1,0,50,34.87226,14.7748,14.7748,0,0,0,45.64407,24.35593ZM37.5496,44.63061a22.19976,22.19976,0,0,1-.51836-4.47207c.022.00244.044.00367.066.00611a30.38459,30.38459,0,0,0,3.9476.055A1.64465,1.64465,0,0,0,42.3432,41.518a40.44467,40.44467,0,0,1-.49758,5.18359,13.51656,13.51656,0,0,1-3.23241,1.324,18.42139,18.42139,0,0,1-.703-1.99153.90856.90856,0,0,0,.19316-.56237.92059.92059,0,0,0-.55381-.84111ZM42.963,38.28683A7.92248,7.92248,0,0,0,41.4593,34.151l-.57582.49513a7.09694,7.09694,0,0,1,1.32279,3.67619,1.647,1.647,0,0,0-1.12841,1.12841,30.32015,30.32015,0,0,1-4.043-.066,21.87269,21.87269,0,0,1,.5208-4.30214l-.74086-.165a22.72371,22.72371,0,0,0-.5367,4.395,28.19024,28.19024,0,0,1-5.64327-1.20665c.00122-.022.00122-.04523.00122-.06846a1.69979,1.69979,0,0,0-.41322-1.11374A16.27067,16.27067,0,0,1,35.27322,33.547l-.2873-.703a17.07906,17.07906,0,0,0-5.38286,3.62362,1.70688,1.70688,0,0,0-1.972.45723q-1.02877-.47863-2.01475-1.04283a1.32726,1.32726,0,0,0-.14915-1.90961,21.89859,21.89859,0,0,1,5.58947-6.5724,1.22763,1.22763,0,0,0,1.41815-.467,28.24345,28.24345,0,0,1,3.58206,1.928l.41933-.63328a29.35524,29.35524,0,0,0-3.77277-2.02942c.077-.05135.154-.10269.23106-.15282a27.01436,27.01436,0,0,1,7.94043-3.50381,13.675,13.675,0,0,1,3.796,2.64314L41.0522,28.25462l.49146.57949,3.65419-3.1016a13.615,13.615,0,0,1,2.8033,4.73369l-5.37431.45234.06357.75676,5.5418-.467a13.64146,13.64146,0,0,1,.066,7.0822,35.85474,35.85474,0,0,1-4.17621.86189A1.64106,1.64106,0,0,0,42.963,38.28683ZM24.62242,36.32709a1.3338,1.3338,0,0,0,.2115-.01834,27.47286,27.47286,0,0,0,2.4402,1.28734,1.704,1.704,0,0,0,.17238,1.29345q-.3686.47679-.71519.97315a27.04166,27.04166,0,0,0-2.1309,3.61873,13.69316,13.69316,0,0,1-1.55019-2.34851,22.44926,22.44926,0,0,1,1.31546-4.8315,1.29694,1.29694,0,0,0,.25673.02567ZM39.72084,22.06366a28.10006,28.10006,0,0,0-7.17756,3.329c-.03912.02567-.07824.05257-.11736.07824a1.23035,1.23035,0,0,0-1.77147-.1736q-1.766-.739-3.56372-1.39737a13.5886,13.5886,0,0,1,12.63011-1.83626Zm-13.3343,2.39008q1.95118.706,3.86813,1.50373a1.2275,1.2275,0,0,0,.17849.96581,22.86948,22.86948,0,0,0-4.18477,4.373,21.4718,21.4718,0,0,0-1.50006,2.38152c-.04157-.00367-.08436-.00611-.12714-.00611a1.32952,1.32952,0,0,0-1.21643.79465,21.77541,21.77541,0,0,1-1.76413-1.40226A13.60834,13.60834,0,0,1,26.38655,24.45373Zm-4.83639,9.53952q.86373.72436,1.79225,1.36314a1.3304,1.3304,0,0,0,.34231.5856,23.12414,23.12414,0,0,0-1.18954,3.98916,13.56062,13.56062,0,0,1-.945-5.9379Zm3.5955,10.11411A26.3408,26.3408,0,0,1,27.36581,40.282c.19561-.28.39855-.55626.60638-.82889a1.68841,1.68841,0,0,0,.95359.291,1.708,1.708,0,0,0,1.5074-.90468,28.71109,28.71109,0,0,0,5.83765,1.24577,22.96113,22.96113,0,0,0,.5,4.56865.91673.91673,0,0,0,.41322,1.736l.03179-.00122a19.05633,19.05633,0,0,0,.64306,1.81426,13.60533,13.60533,0,0,1-12.71324-4.09553Zm17.55208,2.0661a38.49322,38.49322,0,0,0,.40833-4.686,1.64725,1.64725,0,0,0,1.19809-1.5832v-.00489a36.76084,36.76084,0,0,0,3.74343-.75675,13.67315,13.67315,0,0,1-5.34986,7.03086Z"/><path class="d" d="M38.73547,28.6385a2.65781,2.65781,0,1,0,2.65781,2.65781,2.66043,2.66043,0,0,0-2.65781-2.65781Zm0,4.05029a1.39248,1.39248,0,1,1,1.39248-1.39248A1.39413,1.39413,0,0,1,38.73547,32.68879Z"/></svg>