<svg xmlns="http://www.w3.org/2000/svg" viewBox="0 0 70 70"><defs><style>.a{fill:#aeddee;}.b{fill:#fff;}.c{fill:#45bfe9;}.d{fill:#53a9df;}</style></defs><title>资源 5</title><circle class="a" cx="35" cy="35" r="35"/><polygon class="b" points="21 28.368 21 47.526 23.947 50.474 38.684 50.474 41.632 47.526 41.632 44.579 47.526 44.579 49 43.105 47.526 29.842 47.65 28.368 40.158 21 34.632 21 29.842 22.187 29.163 26.746 23.947 25.421 21 28.368"/><path class="c" d="M40.15791,34.26322V46.78951A2.21062,2.21062,0,0,1,37.9474,49H24.68418a2.2105,2.2105,0,0,1-2.21047-2.21051V29.10531a2.2105,2.2105,0,0,1,2.21047-2.21061h8.10531V25.42112H23.9474A2.94727,2.94727,0,0,0,21,28.36838V47.5263a2.9474,2.9474,0,0,0,2.9474,2.9474H38.68419a2.94749,2.94749,0,0,0,2.9474-2.9474V34.26322Z"/><path class="c" d="M36.47372,32.7895a2.21053,2.21053,0,0,1-2.21051-2.21061V25.42112H32.78949v5.8947a2.9474,2.9474,0,0,0,2.94729,2.9474h5.8948V32.7895Z"/><path class="c" d="M34.26321,25.42112l-.52,1.564,7.36838,7.36842.521-.521v-1.042Z"/><path class="d" d="M28.36837,23.9474v1.47372h1.47372v-.73693a2.21041,2.21041,0,0,1,2.21051-2.21047h8.10531V21h-8.8421a2.94741,2.94741,0,0,0-2.94744,2.9474Zm19.15792,5.8947V42.36839a2.21043,2.21043,0,0,1-2.21047,2.21051H41.63159v1.47368h4.421A2.94738,2.94738,0,0,0,49,43.10532V29.8421Z"/><path class="c" d="M43.8421,28.36838a2.2104,2.2104,0,0,1-2.21051-2.21047V21H40.15791v5.8947a2.94731,2.94731,0,0,0,2.9474,2.9474H49V28.36838Z"/><path class="c" d="M41.63033,21l-.52144,1.56262L48.47727,29.931l.521-.521V28.368Z"/><path class="a" d="M32.0526,34.26322H23.9474v1.47357h8.1052V34.26322Zm0,3.68419H23.9474V39.421h8.1052V37.94741ZM23.9474,41.6316v1.47372H35.73679V41.6316Zm0,5.15791H35.73679V45.31579H23.9474v1.47372Z"/></svg>