<svg xmlns="http://www.w3.org/2000/svg" viewBox="0 0 70 70"><defs><style>.a{fill:#fbdfe1;}.b{fill:#040000;}.c{fill:#e72d29;}.d{fill:#fff;}.e{fill:#f29c9d;}.f{fill:#e89899;}</style></defs><title>资源 9</title><circle class="a" cx="35" cy="35" r="35"/><path class="b" d="M37.8732,42.82793H30.17953a.652.652,0,1,0,0,1.304H37.8732a.616.616,0,0,0,.652-.652A.69856.69856,0,0,0,37.8732,42.82793Z"/><path class="b" d="M41.65484,37.74228H30.17953a.652.652,0,1,0,0,1.304H41.65484a.652.652,0,0,0,0-1.304Z"/><path class="b" d="M30.17953,28.7446h3.12963a.652.652,0,1,0,0-1.304H30.17953a.652.652,0,1,0,0,1.304Z"/><path class="c" d="M41.00283,21.83333H27.0499a2.61569,2.61569,0,0,0-2.608,2.608V47.392A2.61569,2.61569,0,0,0,27.0499,50h17.865a2.61569,2.61569,0,0,0,2.608-2.608V28.7446Z"/><path class="d" d="M46.08848,47.26157a1.30673,1.30673,0,0,1-1.304,1.304H27.0499a1.30673,1.30673,0,0,1-1.304-1.304V24.311a1.30673,1.30673,0,0,1,1.304-1.304H38.52521v6.38966a1.30673,1.30673,0,0,0,1.304,1.304h6.38966v16.561Z"/><polygon class="d" points="39.699 29.397 39.699 23.007 40.351 23.007 46.088 29.397 39.699 29.397"/><rect class="e" x="27.93663" y="25.30201" width="2.34722" height="2.34722" rx="0.99448" ry="0.99448"/><rect class="e" x="31.06626" y="25.30201" width="2.34722" height="2.34722" rx="0.99448" ry="0.99448"/><rect class="e" x="34.19589" y="25.30201" width="2.34722" height="2.34722" rx="0.99448" ry="0.99448"/><rect class="e" x="27.93663" y="28.58812" width="2.34722" height="2.34722" rx="0.99448" ry="0.99448"/><rect class="e" x="31.06626" y="28.58812" width="2.34722" height="2.34722" rx="0.99448" ry="0.99448"/><rect class="e" x="34.19589" y="28.58812" width="2.34722" height="2.34722" rx="0.99448" ry="0.99448"/><path class="f" d="M32.36491,38.41925a3.45471,3.45471,0,0,1,3.45105-3.451,3.4919,3.4919,0,0,1,3.451,3.451v.639h.63893a.701.701,0,0,1,.68172.68168v5.45343a.701.701,0,0,1-.68172.68164H31.72585a.701.701,0,0,1-.68164-.68164V39.73994a.70092.70092,0,0,1,.68164-.68168h.63906Zm1.36331.639h4.17531v-.639a2.08766,2.08766,0,0,0-4.17531,0Zm3.0462,4.3882A1.37067,1.37067,0,1,0,34.836,41.508a1.37067,1.37067,0,0,0,1.9384,1.93844Z"/></svg>