<svg xmlns="http://www.w3.org/2000/svg" viewBox="0 0 70 70"><defs><style>.a{fill:#fce4ce;}.b{fill:#fff;stroke:#f4a343;stroke-miterlimit:10;stroke-width:2px;}.c{fill:#f4a343;}</style></defs><title>资源 10</title><circle class="a" cx="35" cy="35" r="35"/><path class="b" d="M24.18418,32.1634a10.914,10.914,0,0,1,3.286-7.9514,10.75683,10.75683,0,0,1,7.9513-3.31532A11.31947,11.31947,0,0,1,46.71768,32.1634a12.58761,12.58761,0,0,1-.059,1.29108c-.0732.07329-.05852.21984-.05852.29313L46.4241,34.8041c-.07345,0-.05852.10265-.05852.17607q-.17632.59386-.35216,1.0562v.05877l-.05877.05852a10.6129,10.6129,0,0,1-.46958,1.11488c0,.0441-.01468.0589-.05868.0589a9.21186,9.21186,0,0,1-.64555,1.11488c-.23449.35216-.48413.70433-.763,1.0562l-.029.02971-.02945.02872a8.6703,8.6703,0,0,1-.82136.822.65983.65983,0,0,0-.0881.05852c-.14674.10252-.16139.19074-.32307.352-.0732,0-.17559.04387-.17559.11755l-.55768.43962-.11745.088-.088.059a2.54731,2.54731,0,0,0-.763.93891,2.64693,2.64693,0,0,1-.4692.76285,1.24315,1.24315,0,0,1-.88039.23462H31.22557a1.24309,1.24309,0,0,1-.88-.23462,2.96716,2.96716,0,0,1-.499-.76285,3.20258,3.20258,0,0,0-.73327-.93891.15165.15165,0,0,1-.11755-.059l-.088-.088-.55746-.43962-.17607-.11755-.23449-.23436-.17607-.17619-.82184-.822-.0291-.02872-.02945-.02971a13.71248,13.71248,0,0,1-1.40814-2.17109c-.04422,0-.059-.01468-.059-.0589a10.63781,10.63781,0,0,1-.4692-1.11488c-.0441,0-.0589-.01468-.0589-.05852v-.05877q-.1756-.46244-.35191-1.0562a.48066.48066,0,0,1-.02945-.088l-.02945-.088a8.81646,8.81646,0,0,1-.176-1.05649c0-.07329-.05868-.21984-.05868-.29313a12.79311,12.79311,0,0,1-.05829-1.2912h-.0001Z"/><path class="c" d="M30.815,45.30794h9.38912a.9388.9388,0,0,1,0,1.8776H30.815a.9388.9388,0,1,1,0-1.8776Z"/><path class="c" d="M31.22563,49.06353h8.50885l-3.46232,1.76005a2.14014,2.14014,0,0,1-1.70176,0l-3.34474-1.76005Z"/><path class="c" d="M36.44836,26.53006a4.64519,4.64519,0,0,1,3.19825,1.379A4.49113,4.49113,0,0,1,41.14286,31.342a.93891.93891,0,0,0,1.87782,0,6.25119,6.25119,0,0,0-1.9954-4.87043,6.59155,6.59155,0,0,0-4.57695-1.81943.939.939,0,0,0,0,1.878Z"/></svg>