<svg xmlns="http://www.w3.org/2000/svg" viewBox="0 0 70 70"><defs><style>.a{fill:#d0e8cf;}.b,.d{fill:#fff;}.b{stroke:#53ad53;stroke-miterlimit:10;stroke-width:2px;}.c{fill:#8ec98d;}.e{fill:#53ad53;}</style></defs><title>资源 6</title><circle class="a" cx="35" cy="35" r="35"/><rect class="b" x="24.5" y="24" width="22.5" height="22.5" rx="3" ry="3"/><path class="c" d="M41.55262,28.875h-7.875a1.125,1.125,0,0,0,0,2.25h7.875a1.125,1.125,0,0,0,0-2.25m0,5.625h-7.875a1.125,1.125,0,0,0,0,2.25h7.875a1.125,1.125,0,0,0,0-2.25m0,5.625h-7.875a1.125,1.125,0,0,0,0,2.25h7.875a1.125,1.125,0,0,0,0-2.25M30,28.875A1.125,1.125,0,1,0,31.125,30,1.125,1.125,0,0,0,30,28.875M30,34.5a1.125,1.125,0,1,0,1.125,1.125A1.125,1.125,0,0,0,30,34.5m0,5.625a1.125,1.125,0,1,0,1.125,1.125A1.125,1.125,0,0,0,30,40.125"/><circle class="d" cx="24.90505" cy="35.5578" r="4.99658"/><path class="e" d="M24.82791,40.49154a4.85659,4.85659,0,1,1,4.85659-4.85659,4.8621,4.8621,0,0,1-4.85659,4.85659m0-10.6845a5.82791,5.82791,0,1,0,5.82791,5.82791A5.8344,5.8344,0,0,0,24.82791,29.807"/><path class="e" d="M26.29827,34.63325l-1.97448,2.15852-.8082-.90563a.4164.4164,0,1,0-.62124.55462l1.11507,1.24915a.41638.41638,0,0,0,.30812.13907H24.32a.41747.41747,0,0,0,.30729-.13532l2.28552-2.49829a.41644.41644,0,0,0-.61458-.56212h0"/></svg>